HIERARCHY
ROOT Hips
{
	OFFSET -3.958830 18.904000 13.208200
	CHANNELS 6 Xposition Yposition Zposition Zrotation Yrotation Xrotation 
	JOINT LHipJoint
	{
		OFFSET 0.000000 0.000000 0.000000
		CHANNELS 3 Zrotation Yrotation Xrotation
		JOINT LeftUpLeg
		{
			OFFSET 1.800000 -1.400000 0.085000
			CHANNELS 3 Zrotation Yrotation Xrotation
			JOINT LeftLeg
			{
				OFFSET 2.215000 -6.000000 0.000000
				CHANNELS 3 Zrotation Yrotation Xrotation
				JOINT LeftFoot
				{
					OFFSET 2.500000 -6.900000 0.000000
					CHANNELS 3 Zrotation Yrotation Xrotation
					JOINT LeftToeBase
					{
						OFFSET 0.200000 -0.500000 1.950000
						CHANNELS 3 Zrotation Yrotation Xrotation
						End Site
						{
							OFFSET 0.000000 0.000000 0.000000
						}
					}
				}
			}
		}
	}
	JOINT RHipJoint
	{
		OFFSET 0.000000 0.000000 0.000000
		CHANNELS 3 Zrotation Yrotation Xrotation
		JOINT RightUpLeg
		{
			OFFSET -1.800000 -1.400000 0.085000
			CHANNELS 3 Zrotation Yrotation Xrotation
			JOINT RightLeg
			{
				OFFSET -2.215000 -6.000000 0.000000
				CHANNELS 3 Zrotation Yrotation Xrotation
				JOINT RightFoot
				{
					OFFSET -2.500000 -6.900000 0.000000
					CHANNELS 3 Zrotation Yrotation Xrotation
					JOINT RightToeBase
					{
						OFFSET -0.200000 -0.500000 1.950000
						CHANNELS 3 Zrotation Yrotation Xrotation
						End Site
						{
							OFFSET 0.000000 0.000000 0.000000
						}
					}
				}
			}
		}
	}
	JOINT LowerBack
	{
		OFFSET 0.000000 0.000000 0.000000
		CHANNELS 3 Zrotation Yrotation Xrotation
		JOINT Spine
		{
			OFFSET -0.087000 1.940000 -0.288900
			CHANNELS 3 Zrotation Yrotation Xrotation
			JOINT Spine1
			{
				OFFSET 0.000000 1.950000 0.060000
				CHANNELS 3 Zrotation Yrotation Xrotation
				JOINT Neck
				{
					OFFSET 0.000000 0.000000 0.000000
					CHANNELS 3 Zrotation Yrotation Xrotation
					JOINT Neck1
					{
						OFFSET 0.000000 1.600000 0.340000
						CHANNELS 3 Zrotation Yrotation Xrotation
						JOINT Head
						{
							OFFSET 0.000000 1.667000 -0.240000
							CHANNELS 3 Zrotation Yrotation Xrotation
							End Site
							{
								OFFSET 0.000000 0.000000 0.000000
							}
						}
					}
				}
				JOINT LeftShoulder
				{
					OFFSET 0.000000 0.000000 0.000000
					CHANNELS 3 Zrotation Yrotation Xrotation
					JOINT LeftArm
					{
						OFFSET 2.700000 1.550000 -0.730000
						CHANNELS 3 Zrotation Yrotation Xrotation
						JOINT LeftForeArm
						{
							OFFSET 5.450000 0.000000 0.000000
							CHANNELS 3 Zrotation Yrotation Xrotation
							JOINT LeftHand
							{
								OFFSET 3.450000 0.000000 0.000000
								CHANNELS 3 Zrotation Yrotation Xrotation
								JOINT LeftHandIndex1
								{
									OFFSET 0.750000 0.000000 0.000000
									CHANNELS 3 Zrotation Yrotation Xrotation
									End Site
									{
										OFFSET 0.000000 0.000000 0.000000
									}
								}
							}
						}
					}
				}
				JOINT RightShoulder
				{
					OFFSET 0.000000 0.000000 0.000000
					CHANNELS 3 Zrotation Yrotation Xrotation
					JOINT RightArm
					{
						OFFSET -2.700000 1.550000 -0.730000
						CHANNELS 3 Zrotation Yrotation Xrotation
						JOINT RightForeArm
						{
							OFFSET -5.450000 0.000000 0.000000
							CHANNELS 3 Zrotation Yrotation Xrotation
							JOINT RightHand
							{
								OFFSET -3.450000 0.000000 0.000000
								CHANNELS 3 Zrotation Yrotation Xrotation
								JOINT RightHandIndex1
								{
									OFFSET -0.750000 0.000000 0.000000
									CHANNELS 3 Zrotation Yrotation Xrotation
									End Site
									{
										OFFSET 0.000000 0.000000 0.000000
									}
								}
							}
						}
					}
				}
			}
		}
	}
}
MOTION
Frames: 4
Frame Time: 0.016667
0.021150 16.859350 -0.476280 -2.940082 -8.433042 4.921128 -15.004989 13.213786 2.537961 7.811341 -1.310848 -16.037007 -7.168321 7.046626 17.372955 -0.524684 4.908132 3.131533 -0.086970 -0.435890 -0.113960 18.400806 -11.053649 2.607773 -9.933828 1.145267 -12.366815 10.392958 -5.675507 10.565588 0.187320 -4.116835 3.216958 0.040610 0.881400 0.168700 -3.917425 -1.139070 -6.457716 8.159291 3.072352 2.037376 -2.912676 3.594359 7.507499 0.326463 -5.854393 -6.581186 -11.203940 13.100412 29.053915 -3.000510 11.840780 8.521720 -9.844172 3.315747 2.895367 -43.231907 -9.716284 -2.746768 58.238703 -62.999749 -35.042745 -4.072275 2.317166 0.003470 0.721370 -0.645090 0.170650 9.025759 1.607148 1.025749 36.595672 14.706100 -1.783030 -8.661214 30.456581 -2.156908 1.899838 -1.558345 -0.496630 0.272170 0.265110 -0.175260 
0.020870 16.859180 -0.476320 -2.955045 -8.448307 4.919695 -15.003163 13.211672 2.537764 7.836349 -1.310302 -16.052821 -7.179938 7.058186 17.406865 -0.524844 4.913668 3.129394 -0.086390 -0.435280 -0.113330 18.402579 -11.055471 2.608455 -9.920315 1.146998 -12.368053 10.398245 -5.678415 10.574478 0.186624 -4.117663 3.216795 0.040980 0.881670 0.168900 -3.922557 -1.131629 -6.458307 8.207206 3.071416 2.047553 -2.959615 3.595890 7.494461 0.339751 -5.849918 -6.570324 -11.190372 13.103158 29.055407 -3.011370 11.854580 8.503300 -9.905733 3.301026 2.874700 -43.111662 -9.713426 -2.738929 58.479718 -62.982348 -35.168788 -4.072069 2.310783 0.004040 0.721610 -0.644790 0.170950 9.054617 1.612009 1.025994 36.557091 14.710270 -1.776927 -8.662075 30.451723 -2.155644 1.899318 -1.557997 -0.496890 0.272780 0.264920 -0.175460 
0.020190 16.858760 -0.476160 -2.976930 -8.475915 4.918047 -15.000033 13.207415 2.537186 7.876384 -1.308929 -16.075750 -7.201631 7.078363 17.464060 -0.524375 4.923719 3.125802 -0.085990 -0.435070 -0.113110 18.405600 -11.058633 2.610215 -9.903550 1.149634 -12.366149 10.417477 -5.684820 10.580766 0.185421 -4.120694 3.215974 0.041240 0.882610 0.169980 -3.931327 -1.117316 -6.459543 8.282353 3.072072 2.061265 -3.046249 3.600312 7.469090 0.367000 -5.833247 -6.552211 -11.147627 13.104097 29.060663 -3.026150 11.881460 8.497590 -10.010773 3.275526 2.842166 -42.888711 -9.698303 -2.723600 59.026247 -62.967537 -35.476581 -4.071560 2.296956 0.004580 0.722550 -0.644410 0.171850 9.095937 1.615004 1.024870 36.508979 14.725901 -1.761749 -8.673808 30.426037 -2.156318 1.898795 -1.558035 -0.497210 0.273110 0.264640 -0.175500 
0.018910 16.858400 -0.476130 -3.004122 -8.527865 4.910223 -14.995412 13.201842 2.536882 7.937591 -1.305397 -16.108612 -7.241186 7.112731 17.554222 -0.523521 4.940022 3.119666 -0.085030 -0.434370 -0.112410 18.409891 -11.063161 2.612325 -9.886160 1.154915 -12.367989 10.445955 -5.695873 10.603380 0.183516 -4.124656 3.214719 0.042000 0.883160 0.170920 -3.943909 -1.097973 -6.461584 8.389380 3.075064 2.087091 -3.166335 3.609743 7.433892 0.395856 -5.822020 -6.529214 -11.115914 13.113746 29.081825 -3.041160 11.917160 8.479730 -10.141036 3.247275 2.799791 -42.556752 -9.673012 -2.695965 59.868161 -62.930930 -35.950320 -4.070183 2.275845 0.005930 0.723100 -0.643430 0.173060 9.153460 1.622577 1.022816 36.441310 14.755441 -1.737809 -8.675203 30.385769 -2.152506 1.898267 -1.557498 -0.497860 0.273950 0.264040 -0.175860 
